<?xml version="1.0" encoding="UTF-8"?>
<svg id="_圖層_2" data-name="圖層 2" xmlns="http://www.w3.org/2000/svg" xmlns:xlink="http://www.w3.org/1999/xlink" viewBox="0 0 56.69 56.69">
  <defs>
    <clipPath id="clippath">
      <rect width="56.69" height="56.69" rx="3.12" ry="3.12" style="fill: none;"/>
    </clipPath>
  </defs>
  <g id="_圖層_1-2" data-name="圖層 1">
    <g style="clip-path: url(#clippath);">
      <rect x="0" width="56.69" height="56.69" style="fill: #45505e;"/>
      <polygon points="56.69 .63 56.69 .13 0 .13 0 28.35 56.69 .63" style="fill: #efb418;"/>
      <polygon points="0 36.78 0 56.82 56.69 56.82 56.69 9.06 0 36.78" style="fill: #c2b9b8;"/>
      <path d="M32.74,39.21l-1.75.14c-.16-.69-.38-1.19-.66-1.5-.48-.5-1.06-.75-1.76-.75-.56,0-1.05.16-1.47.47-.55.4-.99.99-1.31,1.77s-.48,1.88-.5,3.31c.42-.64.94-1.12,1.55-1.44s1.25-.47,1.92-.47c1.17,0,2.17.43,2.99,1.29s1.24,1.98,1.24,3.34c0,.9-.19,1.73-.58,2.5s-.92,1.36-1.6,1.77-1.45.62-2.3.62c-1.46,0-2.66-.54-3.58-1.62s-1.39-2.85-1.39-5.33c0-2.77.51-4.78,1.53-6.04.89-1.09,2.09-1.64,3.6-1.64,1.13,0,2.05.32,2.77.95s1.15,1.5,1.29,2.62ZM25.56,45.38c0,.61.13,1.19.39,1.74s.62.98,1.08,1.26.95.43,1.46.43c.74,0,1.38-.3,1.91-.9s.8-1.41.8-2.44-.26-1.77-.79-2.34-1.19-.85-1.99-.85-1.47.28-2.02.85-.83,1.32-.83,2.24Z" style="fill: #231815;"/>
      <path d="M5.98,14.24V5.65h5.79v1.01h-4.66v2.66h4.03v1.01h-4.03v3.9h-1.14Z" style="fill: #231815;"/>
    </g>
  </g>
</svg>