<?xml version="1.0" encoding="UTF-8"?>
<svg id="_圖層_2" data-name="圖層 2" xmlns="http://www.w3.org/2000/svg" xmlns:xlink="http://www.w3.org/1999/xlink" viewBox="0 0 56.69 56.69">
  <defs>
    <clipPath id="clippath">
      <rect width="56.69" height="56.69" rx="3.12" ry="3.12" style="fill: none;"/>
    </clipPath>
  </defs>
  <g id="_圖層_1-2" data-name="圖層 1">
    <g style="clip-path: url(#clippath);">
      <rect x="0" width="56.69" height="56.69" style="fill: #45505e;"/>
      <polygon points="56.69 .63 56.69 .13 0 .13 0 28.35 56.69 .63" style="fill: #efb418;"/>
      <polygon points="0 36.78 0 56.82 56.69 56.82 56.69 9.06 0 36.78" style="fill: #c2b9b8;"/>
      <g>
        <path d="M4.98,14.24V5.65h5.79v1.01h-4.66v2.66h4.03v1.01h-4.03v3.9h-1.14Z" style="fill: #231815;"/>
        <path d="M11.98,12.25l1.01-.09c.09.48.25.82.49,1.04s.55.32.93.32c.32,0,.61-.07.85-.22s.44-.35.6-.59.29-.58.39-1,.16-.85.16-1.29c0-.05,0-.12,0-.21-.21.34-.5.61-.86.82s-.76.31-1.19.31c-.71,0-1.31-.26-1.8-.77s-.74-1.2-.74-2.04.26-1.57.77-2.1,1.16-.8,1.93-.8c.56,0,1.07.15,1.53.45s.81.73,1.05,1.29.36,1.36.36,2.42-.12,1.97-.36,2.62-.59,1.15-1.06,1.49-1.02.51-1.66.51c-.67,0-1.22-.19-1.65-.56s-.68-.9-.77-1.57ZM16.3,8.46c0-.61-.16-1.09-.48-1.44s-.71-.53-1.16-.53-.88.19-1.22.57-.52.88-.52,1.49c0,.55.17.99.5,1.33s.74.51,1.22.51.89-.17,1.2-.51.47-.82.47-1.42Z" style="fill: #231815;"/>
      </g>
      <polygon points="45.13 27.42 45.13 42.29 20.19 42.29 20.19 37.03 10.14 43 20.19 48.97 20.19 43.71 45.13 43.71 46.55 43.71 46.55 42.29 46.55 27.42 45.13 27.42" style="fill: #231815;"/>
    </g>
  </g>
</svg>