<?xml version="1.0" encoding="UTF-8"?>
<svg id="_圖層_2" data-name="圖層 2" xmlns="http://www.w3.org/2000/svg" xmlns:xlink="http://www.w3.org/1999/xlink" viewBox="0 0 56.69 56.69">
  <defs>
    <clipPath id="clippath">
      <rect width="56.69" height="56.69" rx="3.12" ry="3.12" style="fill: none;"/>
    </clipPath>
  </defs>
  <g id="_圖層_1-2" data-name="圖層 1">
    <g style="clip-path: url(#clippath);">
      <rect x="0" width="56.69" height="56.69" style="fill: #45505e;"/>
      <polygon points="56.69 .63 56.69 .13 0 .13 0 28.35 56.69 .63" style="fill: #efb418;"/>
      <polygon points="0 36.78 0 56.82 56.69 56.82 56.69 9.06 0 36.78" style="fill: #c2b9b8;"/>
      <g>
        <path d="M9.37,50.02v-14.32h10.35v1.69h-8.46v4.38h7.92v1.68h-7.92v4.87h8.79v1.69h-10.68Z" style="fill: #231815;"/>
        <path d="M22.02,45.42l1.79-.16c.08.72.28,1.3.59,1.76s.79.83,1.44,1.11,1.38.42,2.2.42c.72,0,1.36-.11,1.91-.32s.97-.51,1.24-.88.41-.78.41-1.23-.13-.84-.39-1.18-.69-.62-1.29-.84c-.38-.15-1.23-.38-2.55-.7s-2.24-.61-2.76-.89c-.68-.36-1.19-.8-1.53-1.33s-.5-1.12-.5-1.78c0-.72.21-1.4.62-2.03s1.01-1.1,1.8-1.43,1.66-.49,2.63-.49c1.06,0,2,.17,2.81.51s1.43.84,1.87,1.51.67,1.42.7,2.26l-1.82.14c-.1-.9-.43-1.59-.99-2.05s-1.4-.69-2.5-.69-1.98.21-2.5.63-.79.93-.79,1.52c0,.51.19.94.56,1.27.36.33,1.32.67,2.86,1.02s2.6.65,3.17.91c.83.38,1.45.87,1.85,1.46s.6,1.27.6,2.04-.22,1.48-.65,2.15-1.06,1.2-1.88,1.57-1.74.56-2.76.56c-1.3,0-2.38-.19-3.26-.57s-1.56-.95-2.06-1.7-.76-1.62-.79-2.57Z" style="fill: #231815;"/>
        <path d="M46.22,45l1.89.48c-.4,1.56-1.11,2.74-2.14,3.56s-2.29,1.23-3.78,1.23-2.8-.31-3.76-.94-1.7-1.54-2.21-2.73-.76-2.47-.76-3.84c0-1.49.28-2.79.85-3.9s1.38-1.95,2.43-2.53,2.21-.86,3.47-.86c1.43,0,2.64.36,3.61,1.09s1.66,1.75,2.04,3.08l-1.87.44c-.33-1.04-.81-1.8-1.45-2.28s-1.43-.71-2.38-.71c-1.1,0-2.02.26-2.76.79s-1.26,1.24-1.56,2.12-.45,1.81-.45,2.75c0,1.22.18,2.28.53,3.19s.91,1.59,1.66,2.04,1.56.67,2.43.67c1.06,0,1.96-.31,2.7-.92s1.23-1.52,1.49-2.72Z" style="fill: #231815;"/>
      </g>
      <g>
        <path d="M4.98,14.24V5.65h5.79v1.01h-4.66v2.66h4.03v1.01h-4.03v3.9h-1.14Z" style="fill: #231815;"/>
        <path d="M13.44,9.58c-.44-.16-.76-.39-.97-.69s-.32-.65-.32-1.07c0-.62.22-1.15.67-1.58s1.05-.64,1.79-.64,1.35.22,1.81.65.69.97.69,1.59c0,.4-.1.75-.31,1.04s-.53.52-.95.68c.53.17.93.45,1.2.83s.41.84.41,1.37c0,.73-.26,1.35-.78,1.85s-1.2.75-2.05.75-1.53-.25-2.05-.75-.78-1.13-.78-1.88c0-.56.14-1.03.42-1.4s.69-.63,1.21-.77ZM12.89,11.76c0,.3.07.59.21.87s.35.5.64.65.58.23.91.23c.5,0,.92-.16,1.25-.49s.49-.74.49-1.24-.17-.93-.51-1.26-.76-.5-1.27-.5-.91.16-1.23.49-.49.74-.49,1.23ZM13.23,7.79c0,.41.13.74.39,1s.6.39,1.02.39.74-.13,1-.38.39-.57.39-.94-.13-.71-.4-.98-.6-.4-1-.4-.74.13-1,.39-.4.57-.4.93Z" style="fill: #231815;"/>
      </g>
      <polygon points="51.33 26.92 39.33 26.92 39.33 23.96 33.22 27.63 39.33 31.3 39.33 28.34 51.33 28.34 51.33 26.92" style="fill: #231815; opacity: .92;"/>
    </g>
  </g>
</svg>