<?xml version="1.0" encoding="UTF-8"?>
<svg id="_圖層_2" data-name="圖層 2" xmlns="http://www.w3.org/2000/svg" xmlns:xlink="http://www.w3.org/1999/xlink" viewBox="0 0 56.69 56.69">
  <defs>
    <clipPath id="clippath">
      <rect width="56.69" height="56.69" rx="3.12" ry="3.12" style="fill: none;"/>
    </clipPath>
  </defs>
  <g id="_圖層_1-2" data-name="圖層 1">
    <g style="clip-path: url(#clippath);">
      <g>
        <g>
          <rect x="0" width="56.69" height="56.69" style="fill: #45505e;"/>
          <polygon points="56.69 .63 56.69 .13 0 .13 0 28.35 56.69 .63" style="fill: #efb418;"/>
          <polygon points="0 36.78 0 56.82 56.69 56.82 56.69 9.06 0 36.78" style="fill: #c2b9b8;"/>
        </g>
        <g>
          <path d="M18.76,50.02v-14.32h9.66v1.69h-7.76v4.43h6.72v1.69h-6.72v6.5h-1.89Z" style="fill: #231815;"/>
          <path d="M36.78,50.02h-1.76v-11.2c-.42.4-.98.81-1.67,1.21s-1.3.71-1.85.91v-1.7c.98-.46,1.84-1.02,2.58-1.68s1.26-1.3,1.56-1.91h1.13v14.38Z" style="fill: #231815;"/>
        </g>
        <g>
          <path d="M4.98,14.24V5.65h5.79v1.01h-4.66v2.66h4.03v1.01h-4.03v3.9h-1.14Z" style="fill: #231815;"/>
          <path d="M15.2,14.24v-2.06h-3.73v-.97l3.92-5.57h.86v5.57h1.16v.97h-1.16v2.06h-1.05ZM15.2,11.21v-3.87l-2.69,3.87h2.69Z" style="fill: #231815;"/>
        </g>
      </g>
    </g>
  </g>
</svg>