<?xml version="1.0" encoding="UTF-8"?>
<svg id="_圖層_2" data-name="圖層 2" xmlns="http://www.w3.org/2000/svg" xmlns:xlink="http://www.w3.org/1999/xlink" viewBox="0 0 56.69 56.69">
  <defs>
    <clipPath id="clippath">
      <rect width="56.69" height="56.69" rx="3.12" ry="3.12" style="fill: none;"/>
    </clipPath>
  </defs>
  <g id="_圖層_1-2" data-name="圖層 1">
    <g style="clip-path: url(#clippath);">
      <g>
        <g>
          <rect x="0" width="56.69" height="56.69" style="fill: #45505e;"/>
          <polygon points="56.69 .63 56.69 .13 0 .13 0 28.35 56.69 .63" style="fill: #efb418;"/>
          <polygon points="0 36.78 0 56.82 56.69 56.82 56.69 9.06 0 36.78" style="fill: #c2b9b8;"/>
        </g>
        <g>
          <path d="M18.76,50.02v-14.32h9.66v1.69h-7.76v4.43h6.72v1.69h-6.72v6.5h-1.89Z" style="fill: #231815;"/>
          <path d="M39.4,48.33v1.69h-9.46c-.01-.42.06-.83.21-1.22.24-.64.63-1.28,1.16-1.9s1.3-1.35,2.3-2.17c1.56-1.28,2.61-2.29,3.15-3.03s.82-1.45.82-2.11c0-.7-.25-1.28-.75-1.76s-1.15-.72-1.95-.72c-.85,0-1.52.25-2.03.76s-.77,1.21-.77,2.11l-1.81-.19c.12-1.35.59-2.37,1.4-3.08s1.89-1.06,3.25-1.06,2.46.38,3.26,1.14,1.2,1.71,1.2,2.83c0,.57-.12,1.14-.35,1.69s-.62,1.14-1.17,1.75-1.45,1.45-2.71,2.52c-1.05.89-1.73,1.49-2.03,1.8s-.55.63-.74.95h7.02Z" style="fill: #231815;"/>
        </g>
        <g>
          <path d="M4.98,14.24V5.65h5.79v1.01h-4.66v2.66h4.03v1.01h-4.03v3.9h-1.14Z" style="fill: #231815;"/>
          <path d="M11.82,11.99l1.11-.09c.08.54.27.94.57,1.22s.66.41,1.08.41c.51,0,.94-.19,1.29-.57s.53-.89.53-1.52-.17-1.08-.51-1.42-.78-.52-1.33-.52c-.34,0-.65.08-.92.23s-.49.35-.64.6l-.99-.13.83-4.41h4.27v1.01h-3.43l-.46,2.31c.52-.36,1.06-.54,1.62-.54.75,0,1.38.26,1.9.78s.77,1.19.77,2-.23,1.45-.68,2.02c-.55.7-1.3,1.04-2.26,1.04-.78,0-1.42-.22-1.91-.66s-.78-1.02-.85-1.74Z" style="fill: #231815;"/>
        </g>
      </g>
    </g>
  </g>
</svg>