<?xml version="1.0" encoding="UTF-8"?>
<svg id="_圖層_2" data-name="圖層 2" xmlns="http://www.w3.org/2000/svg" xmlns:xlink="http://www.w3.org/1999/xlink" viewBox="0 0 56.69 56.69">
  <defs>
    <clipPath id="clippath">
      <rect x="0" width="56.69" height="56.69" rx="3.12" ry="3.12" style="fill: none;"/>
    </clipPath>
  </defs>
  <g id="_圖層_1-2" data-name="圖層 1">
    <g style="clip-path: url(#clippath);">
      <rect x="0" width="56.69" height="56.69" style="fill: #45505e;"/>
      <polygon points="56.69 .63 56.69 .13 0 .13 0 28.35 56.69 .63" style="fill: #efb418;"/>
      <polygon points="0 36.78 0 56.82 56.69 56.82 56.69 9.06 0 36.78" style="fill: #c2b9b8;"/>
      <path d="M23.88,46.71l1.69-.16c.14.79.42,1.37.82,1.73s.92.54,1.55.54c.54,0,1.01-.12,1.42-.37s.74-.58,1-.99.48-.97.65-1.67.26-1.42.26-2.15c0-.08,0-.2,0-.35-.35.56-.83,1.01-1.44,1.36s-1.27.52-1.98.52c-1.19,0-2.19-.43-3.01-1.29s-1.23-1.99-1.23-3.4.43-2.62,1.28-3.51,1.93-1.33,3.22-1.33c.93,0,1.78.25,2.55.75s1.36,1.22,1.76,2.14.6,2.27.6,4.03-.2,3.29-.6,4.37-.99,1.91-1.77,2.48-1.7.85-2.76.85c-1.12,0-2.03-.31-2.74-.93s-1.14-1.5-1.28-2.62ZM31.08,40.39c0-1.01-.27-1.81-.81-2.4s-1.18-.89-1.94-.89-1.46.32-2.04.96-.87,1.46-.87,2.48c0,.91.27,1.65.83,2.22s1.23.85,2.04.85,1.48-.28,2.01-.85.79-1.36.79-2.37Z" style="fill: #231815;"/>
      <path d="M12.05,11.22l1.14.29c-.24.93-.67,1.65-1.29,2.14s-1.38.74-2.27.74-1.68-.19-2.26-.57-1.02-.92-1.32-1.64-.45-1.48-.45-2.3c0-.89.17-1.67.51-2.34s.83-1.17,1.46-1.52,1.33-.52,2.08-.52c.86,0,1.58.22,2.17.66s.99,1.05,1.22,1.85l-1.12.26c-.2-.62-.49-1.08-.87-1.37s-.86-.43-1.43-.43c-.66,0-1.21.16-1.66.47s-.75.74-.93,1.27-.27,1.08-.27,1.65c0,.73.11,1.37.32,1.91s.54.95.99,1.22.94.4,1.46.4c.64,0,1.18-.18,1.62-.55s.74-.91.9-1.63Z" style="fill: #231815;"/>
    </g>
  </g>
</svg>