<?xml version="1.0" encoding="UTF-8"?>
<svg id="_圖層_2" data-name="圖層 2" xmlns="http://www.w3.org/2000/svg" xmlns:xlink="http://www.w3.org/1999/xlink" viewBox="0 0 56.69 56.69">
  <defs>
    <clipPath id="clippath">
      <rect width="56.69" height="56.69" rx="3.12" ry="3.12" style="fill: none;"/>
    </clipPath>
  </defs>
  <g id="_圖層_1-2" data-name="圖層 1">
    <g style="clip-path: url(#clippath);">
      <rect x="0" width="56.69" height="56.69" style="fill: #45505e;"/>
      <polygon points="56.69 .63 56.69 .13 0 .13 0 28.35 56.69 .63" style="fill: #efb418;"/>
      <polygon points="0 36.78 0 56.82 56.69 56.82 56.69 9.06 0 36.78" style="fill: #c2b9b8;"/>
      <path d="M23.61,46.27l1.85-.16c.14.9.45,1.57.95,2.03s1.1.68,1.8.68c.85,0,1.56-.32,2.15-.96s.88-1.48.88-2.54-.28-1.79-.84-2.37-1.3-.87-2.21-.87c-.57,0-1.08.13-1.53.39s-.81.59-1.07,1l-1.65-.21,1.39-7.35h7.12v1.68h-5.71l-.77,3.85c.86-.6,1.76-.9,2.71-.9,1.25,0,2.3.43,3.16,1.3s1.29,1.98,1.29,3.34-.38,2.42-1.13,3.36c-.92,1.16-2.17,1.74-3.76,1.74-1.3,0-2.36-.36-3.19-1.09s-1.29-1.7-1.41-2.9Z" style="fill: #231815;"/>
      <path d="M5.94,14.24V5.65h6.21v1.01h-5.07v2.63h4.75v1.01h-4.75v2.92h5.27v1.01h-6.41Z" style="fill: #231815;"/>
    </g>
  </g>
</svg>