<?xml version="1.0" encoding="UTF-8"?>
<svg id="_圖層_2" data-name="圖層 2" xmlns="http://www.w3.org/2000/svg" xmlns:xlink="http://www.w3.org/1999/xlink" viewBox="0 0 56.69 56.69">
  <defs>
    <clipPath id="clippath">
      <rect width="56.69" height="56.69" rx="3.12" ry="3.12" style="fill: none;"/>
    </clipPath>
  </defs>
  <g id="_圖層_1-2" data-name="圖層 1">
    <g style="clip-path: url(#clippath);">
      <rect x="0" width="56.69" height="56.69" style="fill: #45505e;"/>
      <polygon points="56.69 .63 56.69 .13 0 .13 0 28.35 56.69 .63" style="fill: #efb418;"/>
      <polygon points="0 36.78 0 56.82 56.69 56.82 56.69 9.06 0 36.78" style="fill: #c2b9b8;"/>
      <path d="M29.25,50.02v-3.43h-6.21v-1.61l6.53-9.28h1.44v9.28h1.93v1.61h-1.93v3.43h-1.76ZM29.25,44.98v-6.46l-4.48,6.46h4.48Z" style="fill: #231815;"/>
      <path d="M5.92,14.24V5.65h2.96c.67,0,1.18.04,1.53.12.49.11.91.32,1.26.62.45.38.79.87,1.02,1.47s.34,1.28.34,2.04c0,.65-.08,1.23-.23,1.73s-.35.92-.59,1.25-.5.59-.78.78-.62.33-1.03.43-.86.15-1.38.15h-3.1ZM7.05,13.22h1.83c.57,0,1.01-.05,1.33-.16s.58-.25.77-.45c.27-.27.48-.63.63-1.09s.23-1.01.23-1.66c0-.9-.15-1.59-.44-2.07s-.65-.81-1.08-.97c-.3-.12-.79-.18-1.47-.18h-1.8v6.56Z" style="fill: #231815;"/>
    </g>
  </g>
</svg>