<?xml version="1.0" encoding="UTF-8"?>
<svg id="_圖層_2" data-name="圖層 2" xmlns="http://www.w3.org/2000/svg" xmlns:xlink="http://www.w3.org/1999/xlink" viewBox="0 0 56.69 56.69">
  <defs>
    <clipPath id="clippath">
      <rect width="56.69" height="56.69" rx="3.12" ry="3.12" style="fill: none;"/>
    </clipPath>
  </defs>
  <g id="_圖層_1-2" data-name="圖層 1">
    <g style="clip-path: url(#clippath);">
      <rect x="0" width="56.69" height="56.69" style="fill: #45505e;"/>
      <polygon points="56.69 .63 56.69 .13 0 .13 0 28.35 56.69 .63" style="fill: #efb418;"/>
      <polygon points="0 36.78 0 56.82 56.69 56.82 56.69 9.06 0 36.78" style="fill: #c2b9b8;"/>
      <path d="M23.61,42.96c0-1.69.17-3.06.52-4.09s.87-1.83,1.55-2.39,1.55-.84,2.59-.84c.77,0,1.44.15,2.02.46s1.06.76,1.44,1.34.67,1.29.89,2.13.32,1.96.32,3.38c0,1.68-.17,3.04-.52,4.07s-.86,1.83-1.55,2.39-1.55.84-2.6.84c-1.38,0-2.46-.49-3.25-1.48-.94-1.19-1.42-3.13-1.42-5.82ZM25.42,42.96c0,2.35.27,3.91.83,4.69s1.23,1.17,2.04,1.17,1.49-.39,2.04-1.17.83-2.34.83-4.69-.27-3.92-.83-4.7-1.24-1.16-2.06-1.16-1.45.34-1.93,1.03c-.61.87-.91,2.48-.91,4.83Z" style="fill: #231815;"/>
      <g>
        <path d="M4.87,14.24V5.65h3.22c.66,0,1.18.09,1.58.26s.71.44.93.8.34.74.34,1.13c0,.37-.1.71-.3,1.04s-.5.59-.9.79c.52.15.92.41,1.2.78s.42.8.42,1.3c0,.4-.08.78-.25,1.12s-.38.61-.63.8-.56.33-.94.42-.84.14-1.39.14h-3.28ZM6.01,9.26h1.86c.5,0,.87-.03,1.08-.1.29-.09.51-.23.65-.43s.22-.45.22-.75c0-.29-.07-.54-.21-.75s-.33-.37-.59-.45-.69-.12-1.31-.12h-1.72v2.6ZM6.01,13.22h2.14c.37,0,.62-.01.77-.04.26-.05.48-.12.66-.23s.32-.27.43-.48.17-.45.17-.72c0-.32-.08-.6-.25-.83s-.39-.4-.68-.5-.71-.14-1.26-.14h-1.99v2.95Z" style="fill: #231815;"/>
        <path d="M12.53,11.48l1.07-.09c.05.43.17.78.35,1.06s.47.5.86.67.83.25,1.32.25c.43,0,.82-.06,1.15-.19s.58-.31.74-.53.24-.47.24-.74-.08-.5-.23-.71-.41-.37-.77-.51c-.23-.09-.74-.23-1.53-.42s-1.34-.37-1.66-.54c-.41-.21-.72-.48-.92-.8s-.3-.67-.3-1.07c0-.43.12-.84.37-1.22s.61-.66,1.08-.86,1-.29,1.58-.29c.64,0,1.2.1,1.68.31s.86.51,1.12.91.4.85.42,1.35l-1.09.08c-.06-.54-.26-.95-.59-1.23s-.84-.42-1.5-.42-1.19.13-1.5.38-.47.56-.47.91c0,.31.11.56.33.76.22.2.79.4,1.71.61s1.56.39,1.9.55c.5.23.87.52,1.11.88s.36.76.36,1.22-.13.89-.39,1.29-.64.72-1.13.94-1.04.34-1.66.34c-.78,0-1.43-.11-1.95-.34s-.94-.57-1.24-1.02-.46-.97-.47-1.54Z" style="fill: #231815;"/>
      </g>
      <polygon points="32.94 28.34 44.95 28.34 44.95 31.3 51.06 27.63 44.95 23.96 44.95 26.92 32.94 26.92 32.94 28.34" style="fill: #231815; opacity: .92;"/>
    </g>
  </g>
</svg>