<?xml version="1.0" encoding="UTF-8"?>
<svg id="_圖層_2" data-name="圖層 2" xmlns="http://www.w3.org/2000/svg" viewBox="0 0 56.69 56.69">
  <g id="_圖層_1-2" data-name="圖層 1">
    <g>
      <rect width="56.69" height="56.69" rx="3.12" ry="3.12" style="fill: #efb418;"/>
      <g>
        <path d="M11.83,18.26l5.96,9.91h-4.03v9.84h-3.92v-9.84h-3.99l5.98-9.91ZM10.65,26.9v9.82h2.33v-9.82h3.4l-4.55-7.63-4.55,7.63h3.37Z" style="fill: #231815;"/>
        <path d="M19.79,32.49l1.29-.19c.06.86.2,1.56.43,2.12s.57,1,1.04,1.34,1,.51,1.58.51c.52,0,.98-.13,1.38-.39.4-.26.69-.61.89-1.06s.29-.94.29-1.47-.09-1.01-.28-1.41-.5-.74-.93-1.01c-.28-.18-.89-.46-1.83-.84-.95-.38-1.61-.74-1.99-1.07-.49-.43-.86-.96-1.1-1.6-.24-.64-.36-1.35-.36-2.14,0-.87.15-1.68.44-2.43.3-.75.73-1.33,1.29-1.72.57-.39,1.2-.59,1.89-.59.76,0,1.44.21,2.02.62.58.41,1.03,1.01,1.35,1.81s.48,1.7.51,2.71l-1.31.16c-.07-1.09-.31-1.91-.71-2.46s-1-.83-1.8-.83-1.43.25-1.8.76-.57,1.11-.57,1.82c0,.62.13,1.12.4,1.52.26.4.95.81,2.06,1.22,1.11.42,1.87.78,2.28,1.1.6.46,1.04,1.04,1.33,1.75.29.71.43,1.52.43,2.44s-.16,1.78-.47,2.58-.77,1.44-1.35,1.89c-.59.45-1.25.67-1.99.67-.93,0-1.71-.23-2.35-.68s-1.12-1.13-1.48-2.04-.55-1.94-.57-3.09Z" style="fill: #231815;"/>
        <path d="M29.69,38.01v-17.18h1.27v6.16c.59-1.14,1.34-1.71,2.24-1.71.55,0,1.03.18,1.44.54s.7.87.88,1.51.26,1.57.26,2.79v7.89h-1.27v-7.89c0-1.05-.14-1.82-.41-2.3-.27-.48-.66-.72-1.16-.72-.38,0-.73.16-1.06.49s-.57.76-.71,1.32-.21,1.32-.21,2.3v6.81h-1.27Z" style="fill: #231815;"/>
        <path d="M37.71,23.26v-2.43h1.27v2.43h-1.27ZM37.71,38.01v-12.45h1.27v12.45h-1.27Z" style="fill: #231815;"/>
        <path d="M41.2,38.01v-10.8h-1.12v-1.64h1.12v-1.32c0-.84.04-1.46.13-1.86.12-.55.34-.99.64-1.33.31-.34.74-.51,1.29-.51.36,0,.75.07,1.18.21l-.19,1.84c-.26-.08-.51-.12-.75-.12-.38,0-.66.14-.82.41-.16.27-.24.79-.24,1.54v1.15h1.46v1.64h-1.46v10.8h-1.26Z" style="fill: #231815;"/>
        <path d="M47.67,36.12l.18,1.86c-.36.12-.68.19-.96.19-.46,0-.82-.12-1.07-.36-.25-.24-.43-.56-.53-.96s-.15-1.22-.15-2.49v-7.16h-.93v-1.64h.93v-3.08l1.26-1.27v4.35h1.27v1.64h-1.27v7.28c0,.6.02.99.07,1.16.04.17.12.31.22.41.1.1.25.15.43.15.14,0,.33-.03.56-.08Z" style="fill: #231815;"/>
      </g>
    </g>
  </g>
</svg>