<?xml version="1.0" encoding="UTF-8"?>
<svg id="_圖層_2" data-name="圖層 2" xmlns="http://www.w3.org/2000/svg" xmlns:xlink="http://www.w3.org/1999/xlink" viewBox="0 0 56.69 56.69">
  <defs>
    <clipPath id="clippath">
      <rect width="56.69" height="56.69" rx="3.12" ry="3.12" style="fill: none;"/>
    </clipPath>
  </defs>
  <g id="_圖層_1-2" data-name="圖層 1">
    <g style="clip-path: url(#clippath);">
      <rect x="0" width="56.69" height="56.69" style="fill: #45505e;"/>
      <polygon points="56.69 .63 56.69 .13 0 .13 0 28.35 56.69 .63" style="fill: #efb418;"/>
      <polygon points="0 36.78 0 56.82 56.69 56.82 56.69 9.06 0 36.78" style="fill: #c2b9b8;"/>
      <path d="M30.24,50.02h-1.76v-11.2c-.42.4-.98.81-1.67,1.21s-1.3.71-1.85.91v-1.7c.98-.46,1.84-1.02,2.58-1.68s1.26-1.3,1.56-1.91h1.13v14.38Z" style="fill: #231815;"/>
      <path d="M8.99,8.14c.29,0,.55.07.77.21s.41.32.55.55c.14.23.21.49.21.77s-.07.54-.21.77c-.14.23-.32.42-.55.56-.23.14-.49.21-.77.21s-.54-.07-.77-.21c-.23-.14-.42-.33-.56-.56-.14-.23-.21-.49-.21-.77s.07-.55.21-.77c.14-.23.33-.41.56-.55s.49-.21.77-.21Z" style="fill: #231815;"/>
    </g>
  </g>
</svg>