<?xml version="1.0" encoding="UTF-8"?>
<svg id="_圖層_2" data-name="圖層 2" xmlns="http://www.w3.org/2000/svg" xmlns:xlink="http://www.w3.org/1999/xlink" viewBox="0 0 56.69 56.69">
  <defs>
    <clipPath id="clippath">
      <rect width="56.69" height="56.69" rx="3.12" ry="3.12" style="fill: none;"/>
    </clipPath>
  </defs>
  <g id="_圖層_1-2" data-name="圖層 1">
    <g style="clip-path: url(#clippath);">
      <rect x="0" width="56.69" height="56.69" style="fill: #45505e;"/>
      <polygon points="56.69 .63 56.69 .13 0 .13 0 28.35 56.69 .63" style="fill: #efb418;"/>
      <polygon points="0 36.78 0 56.82 56.69 56.82 56.69 9.06 0 36.78" style="fill: #c2b9b8;"/>
      <path d="M26.32,42.26c-.73-.27-1.27-.65-1.62-1.14s-.53-1.09-.53-1.78c0-1.04.37-1.92,1.12-2.63s1.74-1.06,2.99-1.06,2.26.36,3.02,1.09,1.14,1.61,1.14,2.65c0,.66-.17,1.24-.52,1.73s-.88.87-1.59,1.14c.88.29,1.55.75,2.01,1.39s.69,1.4.69,2.29c0,1.22-.43,2.25-1.3,3.09s-2.01,1.25-3.42,1.25-2.55-.42-3.42-1.25-1.3-1.88-1.3-3.13c0-.93.24-1.71.71-2.34s1.14-1.06,2.02-1.28ZM25.4,45.89c0,.5.12.99.36,1.46s.59.83,1.06,1.09.97.39,1.51.39c.84,0,1.53-.27,2.08-.81s.82-1.23.82-2.06-.28-1.55-.84-2.1-1.27-.83-2.11-.83-1.51.27-2.06.82-.82,1.23-.82,2.05ZM25.97,39.28c0,.68.22,1.23.65,1.66s1,.64,1.7.64,1.23-.21,1.67-.64.65-.95.65-1.57-.22-1.19-.67-1.63-1-.66-1.67-.66-1.23.21-1.67.64-.66.94-.66,1.54Z" style="fill: #231815;"/>
      <path d="M5.87,14.24V5.65h3.22c.66,0,1.18.09,1.58.26s.71.44.93.8.34.74.34,1.13c0,.37-.1.71-.3,1.04s-.5.59-.9.79c.52.15.92.41,1.2.78s.42.8.42,1.3c0,.4-.08.78-.25,1.12s-.38.61-.63.8-.56.33-.94.42-.84.14-1.39.14h-3.28ZM7.01,9.26h1.86c.5,0,.87-.03,1.08-.1.29-.09.51-.23.65-.43s.22-.45.22-.75c0-.29-.07-.54-.21-.75s-.33-.37-.59-.45-.69-.12-1.31-.12h-1.72v2.6ZM7.01,13.22h2.14c.37,0,.62-.01.77-.04.26-.05.48-.12.66-.23s.32-.27.43-.48.17-.45.17-.72c0-.32-.08-.6-.25-.83s-.39-.4-.68-.5-.71-.14-1.26-.14h-1.99v2.95Z" style="fill: #231815;"/>
    </g>
  </g>
</svg>