<?xml version="1.0" encoding="UTF-8"?>
<svg id="_圖層_2" data-name="圖層 2" xmlns="http://www.w3.org/2000/svg" xmlns:xlink="http://www.w3.org/1999/xlink" viewBox="0 0 56.69 56.69">
  <defs>
    <clipPath id="clippath">
      <rect width="56.69" height="56.69" rx="3.12" ry="3.12" style="fill: none;"/>
    </clipPath>
  </defs>
  <g id="_圖層_1-2" data-name="圖層 1">
    <g style="clip-path: url(#clippath);">
      <g>
        <g>
          <rect x="0" width="56.69" height="56.69" style="fill: #45505e;"/>
          <polygon points="56.69 .63 56.69 .13 0 .13 0 28.35 56.69 .63" style="fill: #efb418;"/>
          <polygon points="0 36.78 0 56.82 56.69 56.82 56.69 9.06 0 36.78" style="fill: #c2b9b8;"/>
        </g>
        <g>
          <path d="M18.76,50.02v-14.32h9.66v1.69h-7.76v4.43h6.72v1.69h-6.72v6.5h-1.89Z" style="fill: #231815;"/>
          <path d="M30.17,46.24l1.76-.23c.2,1,.55,1.71,1.03,2.15s1.08.66,1.77.66c.83,0,1.52-.29,2.09-.86s.85-1.28.85-2.13-.26-1.47-.79-2-1.2-.79-2.01-.79c-.33,0-.75.06-1.24.2l.2-1.54c.12.01.21.02.28.02.75,0,1.42-.2,2.02-.59s.9-.99.9-1.81c0-.64-.22-1.18-.65-1.6s-1-.63-1.69-.63-1.25.21-1.71.64-.75,1.07-.88,1.93l-1.76-.31c.21-1.18.7-2.09,1.46-2.74s1.71-.97,2.84-.97c.78,0,1.5.17,2.16.5s1.16.79,1.51,1.37.52,1.19.52,1.85-.17,1.18-.5,1.69-.82.91-1.47,1.21c.85.2,1.5.6,1.97,1.22s.7,1.39.7,2.31c0,1.25-.46,2.31-1.37,3.18s-2.06,1.3-3.46,1.3c-1.26,0-2.3-.37-3.13-1.12s-1.3-1.72-1.42-2.91Z" style="fill: #231815;"/>
        </g>
        <g>
          <path d="M4.98,14.24V5.65h5.79v1.01h-4.66v2.66h4.03v1.01h-4.03v3.9h-1.14Z" style="fill: #231815;"/>
          <path d="M17.29,7.75l-1.05.08c-.09-.41-.23-.71-.4-.9-.29-.3-.64-.45-1.05-.45-.34,0-.63.09-.88.28-.33.24-.59.6-.79,1.06s-.29,1.13-.3,1.99c.25-.39.56-.67.93-.86s.75-.28,1.15-.28c.7,0,1.3.26,1.8.78s.74,1.19.74,2.01c0,.54-.12,1.04-.35,1.5s-.55.82-.96,1.06-.87.37-1.38.37c-.88,0-1.6-.32-2.15-.97s-.83-1.71-.83-3.2c0-1.66.31-2.87.92-3.62.54-.66,1.26-.98,2.16-.98.68,0,1.23.19,1.66.57s.69.9.78,1.57ZM12.99,11.45c0,.36.08.71.23,1.04s.37.58.65.76.57.26.87.26c.45,0,.83-.18,1.15-.54s.48-.85.48-1.46-.16-1.06-.47-1.4-.71-.51-1.2-.51-.88.17-1.21.51-.5.79-.5,1.34Z" style="fill: #231815;"/>
        </g>
      </g>
    </g>
  </g>
</svg>